<?xml version="1.0" encoding="UTF-8" standalone="no"?>
<!-- Created with Inkscape (http://www.inkscape.org/) -->

<svg
   xmlns:dc="http://purl.org/dc/elements/1.1/"
   xmlns:cc="http://creativecommons.org/ns#"
   xmlns:rdf="http://www.w3.org/1999/02/22-rdf-syntax-ns#"
   xmlns:svg="http://www.w3.org/2000/svg"
   xmlns="http://www.w3.org/2000/svg"
   xmlns:xlink="http://www.w3.org/1999/xlink"
   xmlns:sodipodi="http://sodipodi.sourceforge.net/DTD/sodipodi-0.dtd"
   xmlns:inkscape="http://www.inkscape.org/namespaces/inkscape"
   width="210mm"
   height="297mm"
   viewBox="0 0 744.09448819 1052.3622047"
   id="svg2"
   version="1.1"
   inkscape:version="0.91 r13725"
   sodipodi:docname="11.svg"
   inkscape:export-filename="C:\Users\Andrea\Desktop\quien es quien\svg\11.png"
   inkscape:export-xdpi="90"
   inkscape:export-ydpi="90">
  <defs
     id="defs4">
    <radialGradient
       inkscape:collect="always"
       xlink:href="#linearGradient4311"
       id="radialGradient4317"
       cx="130.24619"
       cy="406.22498"
       fx="130.24619"
       fy="406.22498"
       r="105.10714"
       gradientTransform="matrix(1.2047231,-0.02048582,0.0275676,1.6211872,167.53588,-282.19187)"
       gradientUnits="userSpaceOnUse" />
    <linearGradient
       inkscape:collect="always"
       id="linearGradient4311">
      <stop
         style="stop-color:#ffff00;stop-opacity:1"
         offset="0"
         id="stop4313" />
      <stop
         style="stop-color:#800000;stop-opacity:1"
         offset="1"
         id="stop4315" />
    </linearGradient>
  </defs>
  <sodipodi:namedview
     id="base"
     pagecolor="#ffffff"
     bordercolor="#666666"
     borderopacity="1.0"
     inkscape:pageopacity="0.0"
     inkscape:pageshadow="2"
     inkscape:zoom="1.4"
     inkscape:cx="31.958826"
     inkscape:cy="739.27726"
     inkscape:document-units="px"
     inkscape:current-layer="layer1"
     showgrid="false"
     inkscape:window-width="1920"
     inkscape:window-height="1017"
     inkscape:window-x="-8"
     inkscape:window-y="-8"
     inkscape:window-maximized="1" />
  <metadata
     id="metadata7">
    <rdf:RDF>
      <cc:Work
         rdf:about="">
        <dc:format>image/svg+xml</dc:format>
        <dc:type
           rdf:resource="http://purl.org/dc/dcmitype/StillImage" />
        <dc:title />
      </cc:Work>
    </rdf:RDF>
  </metadata>
  <g
     inkscape:label="Capa 1"
     inkscape:groupmode="layer"
     id="layer1">
    <rect
       style="fill:url(#radialGradient4317);fill-opacity:1;fill-rule:evenodd;stroke:#000000;stroke-width:2.16027188;stroke-linecap:butt;stroke-linejoin:miter;stroke-miterlimit:4;stroke-dasharray:none;stroke-opacity:1"
       id="rect3347"
       width="224.89973"
       height="315.55399"
       x="228.98169"
       y="206.67133"
       ry="0" />
    <g
       id="g3401"
       transform="translate(5.7329241,-9.0924364)">
      <path
         sodipodi:nodetypes="ccccccc"
         inkscape:connector-curvature="0"
         id="path4138"
         d="m 300.71429,398.79078 c -0.0754,18.30161 8.87367,41.07139 -6.42857,54.28571 L 252.14286,471.64792 419.28571,470.93363 370,453.07649 c -13.1586,-18.09524 -3.14769,-36.19047 -4.28571,-54.28571 z"
         style="fill:#f1d5c2;fill-opacity:1;fill-rule:evenodd;stroke:#e7cbb8;stroke-width:1px;stroke-linecap:butt;stroke-linejoin:miter;stroke-opacity:1" />
      <path
         d="m 393.6976,352.00507 a 58.697598,76.197586 0 0 1 -58.568,76.1974 58.697598,76.197586 0 0 1 -58.82663,-75.86094 58.697598,76.197586 0 0 1 58.30825,-76.53238 58.697598,76.197586 0 0 1 59.08409,75.52299"
         sodipodi:open="true"
         sodipodi:end="6.2743539"
         sodipodi:start="0"
         sodipodi:ry="76.197586"
         sodipodi:rx="58.697598"
         sodipodi:cy="352.00507"
         sodipodi:cx="335"
         sodipodi:type="arc"
         id="path3336"
         style="fill:#f1d5c2;fill-opacity:1;fill-rule:nonzero;stroke:#e7cbb8;stroke-width:1.74770379;stroke-linecap:round;stroke-linejoin:round;stroke-miterlimit:4;stroke-dasharray:none;stroke-opacity:1" />
    </g>
    <g
       id="g4271"
       transform="translate(-190.79284,-18.889629)"
       style="stroke:#7d0000;stroke-opacity:1" />
    <g
       id="g4341"
       transform="matrix(1.0588527,-0.00327562,0.00327562,1.0588527,173.62152,-36.465091)"
       style="stroke:#7500ff;stroke-width:1.57451022;stroke-miterlimit:4;stroke-dasharray:none;stroke-opacity:1">
      <path
         style="fill:none;fill-rule:evenodd;stroke:#7500ff;stroke-width:1.57451022;stroke-linecap:butt;stroke-linejoin:miter;stroke-miterlimit:4;stroke-dasharray:none;stroke-opacity:1"
         d="m 199.17104,351.17943 c 5.71429,-3.21428 6.69643,-3.83929 6.69643,-3.83929"
         id="path4254"
         inkscape:connector-curvature="0"
         sodipodi:nodetypes="cc" />
      <path
         style="fill:none;fill-rule:evenodd;stroke:#7500ff;stroke-width:1.57451022;stroke-linecap:butt;stroke-linejoin:miter;stroke-miterlimit:4;stroke-dasharray:none;stroke-opacity:1"
         d="m 117.20634,351.17943 c -5.71429,-3.21428 -6.69643,-3.83929 -6.69643,-3.83929"
         id="path4254-9"
         inkscape:connector-curvature="0"
         sodipodi:nodetypes="cc" />
      <path
         sodipodi:nodetypes="ccccc"
         inkscape:connector-curvature="0"
         id="path4305"
         d="m 116.07143,354.95149 c 3.85567,-14.7081 29.49844,-12.41502 35.26786,-11.42857 l 5.17857,8.39286 c -5.35488,10.0158 -3.7045,24.13737 -22.23215,26.96428 -14.12649,2.06809 -22.30173,-9.80816 -18.21428,-23.92857 z"
         style="fill:#3bbfd3;fill-opacity:0.20392157;fill-rule:evenodd;stroke:#7500ff;stroke-width:1.57451022;stroke-linecap:butt;stroke-linejoin:miter;stroke-miterlimit:4;stroke-dasharray:none;stroke-opacity:1" />
      <path
         style="fill:#3bbfd3;fill-opacity:0.20392157;fill-rule:evenodd;stroke:#7500ff;stroke-width:1.57451022;stroke-linecap:butt;stroke-linejoin:miter;stroke-miterlimit:4;stroke-dasharray:none;stroke-opacity:1"
         d="m 200.98795,354.95149 c -3.85567,-14.7081 -29.49844,-12.41502 -35.26786,-11.42857 l -5.17857,8.39286 c 5.35488,10.0158 3.7045,24.13737 22.23215,26.96428 14.12649,2.06809 22.30173,-9.80816 18.21428,-23.92857 z"
         id="path4325"
         inkscape:connector-curvature="0"
         sodipodi:nodetypes="ccccc" />
      <path
         inkscape:connector-curvature="0"
         id="path4327"
         d="m 150.89286,343.6122 14.91071,0.0893"
         style="fill:none;fill-rule:evenodd;stroke:#7500ff;stroke-width:1.57451022;stroke-linecap:butt;stroke-linejoin:miter;stroke-miterlimit:4;stroke-dasharray:none;stroke-opacity:1" />
      <path
         inkscape:connector-curvature="0"
         id="path4329"
         d="m 155.74622,351.89338 5.44319,0"
         style="fill:none;fill-rule:evenodd;stroke:#7500ff;stroke-width:1.57451022;stroke-linecap:butt;stroke-linejoin:miter;stroke-miterlimit:4;stroke-dasharray:none;stroke-opacity:1" />
    </g>
    <path
       style="fill:#ffffbf;fill-opacity:1;fill-rule:evenodd;stroke:#000000;stroke-width:0.73967254;stroke-linecap:butt;stroke-linejoin:miter;stroke-miterlimit:4;stroke-dasharray:none;stroke-opacity:1"
       d="m 344.69404,249.4157 c -48.0276,-19.50306 -74.69547,31.70551 -78.40137,39.30686 -5.44453,13.34214 -32.80415,13.66613 -15.33938,40.61709 -1.6994,8.83274 -6.08579,17.87204 2.98264,25.87701 0.40606,9.27097 -9.9473,17.44392 8.52189,31.77305 6.98778,24.80419 -18.38465,33.85295 -6.81749,60.59806 l -10.22628,21.94634 c 10.69723,-0.53825 19.12028,-5.15575 26.41786,-11.79207 -5.53096,15.70317 -6.10945,30.00369 9.80017,39.63443 -3.4763,-25.76248 8.84778,-27.23213 17.04378,-35.04862 6.6689,-16.78295 13.44553,-35.88822 5.39786,-57.02243 -6.93095,-5.22186 -7.48017,-12.5837 -5.82397,-20.28105 -9.10455,-12.40212 -15.39899,-27.18053 -13.20892,-49.13358 25.69059,-18.16921 55.04302,-35.44947 60.07931,-58.63275 14.53184,20.2462 19.11515,44.60017 46.44429,49.7887 15.28477,54.02939 -13.08782,56.11415 -20.12205,76.60827 -2.87856,15.0406 -20.11866,49.66726 18.32207,83.85463 -1.55504,-19.1807 14.19551,-25.3943 20.12205,-32.7156 7.62494,-9.41942 31.84268,-23.06088 4.26092,-55.02961 -7.2521,-8.40559 0.19676,-13.95218 4.68704,-19.65343 6.90377,-3.46077 4.47179,-10.50997 2.55657,-17.36053 11.79164,-5.06104 7.9884,-12.69104 4.26094,-20.30855 2.58027,-15.96779 12.74591,-31.15811 -17.04376,-50.4438 -3.10924,-16.6824 -25.11244,-60.82937 -63.91417,-42.58242 z"
       id="path4516"
       inkscape:connector-curvature="0"
       sodipodi:nodetypes="cccccccccccccccccssccccc" />
  </g>
</svg>
