<?xml version="1.0" encoding="UTF-8" standalone="no"?>
<!-- Created with Inkscape (http://www.inkscape.org/) -->

<svg
   xmlns:dc="http://purl.org/dc/elements/1.1/"
   xmlns:cc="http://creativecommons.org/ns#"
   xmlns:rdf="http://www.w3.org/1999/02/22-rdf-syntax-ns#"
   xmlns:svg="http://www.w3.org/2000/svg"
   xmlns="http://www.w3.org/2000/svg"
   xmlns:xlink="http://www.w3.org/1999/xlink"
   xmlns:sodipodi="http://sodipodi.sourceforge.net/DTD/sodipodi-0.dtd"
   xmlns:inkscape="http://www.inkscape.org/namespaces/inkscape"
   width="210mm"
   height="297mm"
   viewBox="0 0 744.09448819 1052.3622047"
   id="svg2"
   version="1.1"
   inkscape:version="0.91 r13725"
   sodipodi:docname="12.svg"
   inkscape:export-filename="C:\Users\Andrea\Desktop\quien es quien\img\12.png"
   inkscape:export-xdpi="90"
   inkscape:export-ydpi="90">
  <defs
     id="defs4">
    <radialGradient
       inkscape:collect="always"
       xlink:href="#linearGradient4311"
       id="radialGradient4317"
       cx="130.24619"
       cy="406.22498"
       fx="130.24619"
       fy="406.22498"
       r="105.10714"
       gradientTransform="matrix(1.2047231,-0.02048582,0.0275676,1.6211872,167.53588,-282.19187)"
       gradientUnits="userSpaceOnUse" />
    <linearGradient
       inkscape:collect="always"
       id="linearGradient4311">
      <stop
         style="stop-color:#ffff00;stop-opacity:1"
         offset="0"
         id="stop4313" />
      <stop
         style="stop-color:#800000;stop-opacity:1"
         offset="1"
         id="stop4315" />
    </linearGradient>
  </defs>
  <sodipodi:namedview
     id="base"
     pagecolor="#ffffff"
     bordercolor="#666666"
     borderopacity="1.0"
     inkscape:pageopacity="0.0"
     inkscape:pageshadow="2"
     inkscape:zoom="1.979899"
     inkscape:cx="226.0345"
     inkscape:cy="636.37973"
     inkscape:document-units="px"
     inkscape:current-layer="layer1"
     showgrid="false"
     inkscape:window-width="1920"
     inkscape:window-height="1017"
     inkscape:window-x="-8"
     inkscape:window-y="-8"
     inkscape:window-maximized="1" />
  <metadata
     id="metadata7">
    <rdf:RDF>
      <cc:Work
         rdf:about="">
        <dc:format>image/svg+xml</dc:format>
        <dc:type
           rdf:resource="http://purl.org/dc/dcmitype/StillImage" />
        <dc:title></dc:title>
      </cc:Work>
    </rdf:RDF>
  </metadata>
  <g
     inkscape:label="Capa 1"
     inkscape:groupmode="layer"
     id="layer1">
    <rect
       style="fill:url(#radialGradient4317);fill-opacity:1;fill-rule:evenodd;stroke:#000000;stroke-width:2.16027188;stroke-linecap:butt;stroke-linejoin:miter;stroke-miterlimit:4;stroke-dasharray:none;stroke-opacity:1"
       id="rect3347"
       width="224.89973"
       height="315.55399"
       x="228.98169"
       y="206.67133"
       ry="0" />
    <path
       style="fill:#7a4816;fill-opacity:1;fill-rule:evenodd;stroke:#000000;stroke-width:1.04092395px;stroke-linecap:butt;stroke-linejoin:miter;stroke-opacity:1"
       d="m 266.24827,330.88276 c -0.93569,37.61302 3.63367,77.29941 -3.42672,112.60568 -7.30022,9.71246 -12.04483,22.31252 -25.70032,24.84422 12.31892,-1.96984 22.20528,-6.55731 26.557,-17.10056 -10.33617,54.56696 -6.35815,51.64919 7.28176,59.69068 l -10.70847,-15.48732 c 6.44861,7.07709 13.61627,13.5042 25.70031,15.48732 -11.6117,-5.82021 -14.99648,-15.7718 -20.13191,-24.84424 l 23.1303,17.42323 c -11.9661,-9.49055 -20.35173,-20.22586 -17.56189,-34.84646 l 10.70846,-17.10056 c 26.71302,-36.87471 94.58638,-34.6872 111.36801,-2.25858 8.63954,18.55126 14.40826,50.11059 -20.98856,49.68847 9.74452,-0.77329 21.43911,1.75846 26.98531,-6.1304 -3.84022,7.11902 -10.578,14.70572 0.85668,19.35915 -4.00543,-15.15971 7.70488,-15.85062 12.85015,-22.58567 -2.83242,2.90823 -1.40087,6.61945 -8.56676,8.71162 18.18413,-4.48004 13.51975,-17.05934 13.27848,-28.07076 l 23.13029,14.51936 c -6.77845,-5.37754 -18.75,-10.75509 -18.41855,-16.13263 5.1436,3.35345 10.6646,6.47948 21.41691,6.45305 -32.2867,-7.77432 -28.23834,-25.68568 -31.26871,-41.62215 l -1.28501,-109.70179 z"
       id="path5071"
       inkscape:connector-curvature="0"
       sodipodi:nodetypes="cccccccccccccccccccccccc" />
    <g
       id="g3401"
       transform="translate(5.7329241,-9.0924364)">
      <path
         sodipodi:nodetypes="ccccccc"
         inkscape:connector-curvature="0"
         id="path4138"
         d="m 300.71429,398.79078 c -0.0754,18.30161 8.87367,41.07139 -6.42857,54.28571 L 252.14286,471.64792 419.28571,470.93363 370,453.07649 c -13.1586,-18.09524 -3.14769,-36.19047 -4.28571,-54.28571 z"
         style="fill:#f1d5c2;fill-opacity:1;fill-rule:evenodd;stroke:#e7cbb8;stroke-width:1px;stroke-linecap:butt;stroke-linejoin:miter;stroke-opacity:1" />
      <path
         d="m 393.6976,352.00507 a 58.697598,76.197586 0 0 1 -58.568,76.1974 58.697598,76.197586 0 0 1 -58.82663,-75.86094 58.697598,76.197586 0 0 1 58.30825,-76.53238 58.697598,76.197586 0 0 1 59.08409,75.52299"
         sodipodi:open="true"
         sodipodi:end="6.2743539"
         sodipodi:start="0"
         sodipodi:ry="76.197586"
         sodipodi:rx="58.697598"
         sodipodi:cy="352.00507"
         sodipodi:cx="335"
         sodipodi:type="arc"
         id="path3336"
         style="fill:#f1d5c2;fill-opacity:1;fill-rule:nonzero;stroke:#e7cbb8;stroke-width:1.74770379;stroke-linecap:round;stroke-linejoin:round;stroke-miterlimit:4;stroke-dasharray:none;stroke-opacity:1" />
    </g>
    <g
       id="g4271"
       transform="translate(-190.79284,-18.889629)"
       style="stroke:#7d0000;stroke-opacity:1" />
    <g
       id="g4341"
       transform="matrix(1.0588527,-0.00327562,0.00327562,1.0588527,173.62152,-36.465091)"
       style="stroke:#aa2e98;stroke-width:1.57451022;stroke-miterlimit:4;stroke-dasharray:none;stroke-opacity:1">
      <path
         style="fill:none;fill-rule:evenodd;stroke:#aa2e98;stroke-width:1.57451022;stroke-linecap:butt;stroke-linejoin:miter;stroke-miterlimit:4;stroke-dasharray:none;stroke-opacity:1"
         d="m 199.17104,351.17943 c 5.71429,-3.21428 6.69643,-3.83929 6.69643,-3.83929"
         id="path4254"
         inkscape:connector-curvature="0"
         sodipodi:nodetypes="cc" />
      <path
         style="fill:none;fill-rule:evenodd;stroke:#aa2e98;stroke-width:1.57451022;stroke-linecap:butt;stroke-linejoin:miter;stroke-miterlimit:4;stroke-dasharray:none;stroke-opacity:1"
         d="m 117.20634,351.17943 c -5.71429,-3.21428 -6.69643,-3.83929 -6.69643,-3.83929"
         id="path4254-9"
         inkscape:connector-curvature="0"
         sodipodi:nodetypes="cc" />
      <path
         sodipodi:nodetypes="ccccc"
         inkscape:connector-curvature="0"
         id="path4305"
         d="m 116.07143,354.95149 c 3.85567,-14.7081 29.49844,-12.41502 35.26786,-11.42857 l 5.17857,8.39286 c -5.35488,10.0158 -3.7045,24.13737 -22.23215,26.96428 -14.12649,2.06809 -22.30173,-9.80816 -18.21428,-23.92857 z"
         style="fill:#3bbfd3;fill-opacity:0.20392157;fill-rule:evenodd;stroke:#aa2e98;stroke-width:1.57451022;stroke-linecap:butt;stroke-linejoin:miter;stroke-miterlimit:4;stroke-dasharray:none;stroke-opacity:1" />
      <path
         style="fill:#3bbfd3;fill-opacity:0.20392157;fill-rule:evenodd;stroke:#aa2e98;stroke-width:1.57451022;stroke-linecap:butt;stroke-linejoin:miter;stroke-miterlimit:4;stroke-dasharray:none;stroke-opacity:1"
         d="m 200.98795,354.95149 c -3.85567,-14.7081 -29.49844,-12.41502 -35.26786,-11.42857 l -5.17857,8.39286 c 5.35488,10.0158 3.7045,24.13737 22.23215,26.96428 14.12649,2.06809 22.30173,-9.80816 18.21428,-23.92857 z"
         id="path4325"
         inkscape:connector-curvature="0"
         sodipodi:nodetypes="ccccc" />
      <path
         inkscape:connector-curvature="0"
         id="path4327"
         d="m 150.89286,343.6122 14.91071,0.0893"
         style="fill:none;fill-rule:evenodd;stroke:#aa2e98;stroke-width:1.57451022;stroke-linecap:butt;stroke-linejoin:miter;stroke-miterlimit:4;stroke-dasharray:none;stroke-opacity:1" />
      <path
         inkscape:connector-curvature="0"
         id="path4329"
         d="m 155.74622,351.89338 5.44319,0"
         style="fill:none;fill-rule:evenodd;stroke:#aa2e98;stroke-width:1.57451022;stroke-linecap:butt;stroke-linejoin:miter;stroke-miterlimit:4;stroke-dasharray:none;stroke-opacity:1" />
    </g>
    <path
       style="fill:#7a4816;fill-opacity:1;fill-rule:evenodd;stroke:#000000;stroke-width:1px;stroke-linecap:butt;stroke-linejoin:miter;stroke-opacity:1"
       d="m 266.79231,459.90649 c 13.08831,-14.85391 28.84099,-12.80837 27.14286,-79.64286 0.61174,22.62083 7.43789,23.49122 11.42857,34.28572 -15.08054,-45.28852 3.37173,-75.24776 20.71429,-105.71428 l 7.14285,-0.35715 -1.42857,-2.5 10,3.21429 -5.71428,-5.35714 7.85714,3.21428 -3.57143,-5.71428 7.14286,5.35714 0.35714,-5.71429 5.71429,8.92857 0.35714,-4.28571 2.5,0.71429 0,5 3.92857,-3.57143 -1.42857,5.71428 5.71429,-4.64285 -2.14286,3.21428 8.92857,-3.92857 0.35714,5.35714 2.85714,-2.85714 0.35714,5.71429 3.92858,-3.21429 0,3.92857 -4.28572,4.28572 6.78572,-3.92858 -1.42858,7.14286 4.28572,-4.28571 0,6.42857 4.64286,-6.07143 -3.21429,10 8.92857,-5 -5.71428,12.14285 2.85714,3.57143 2.85714,-0.35714 -3.21428,9.28571 4.64285,-5.35714 -5,13.92857 3.57143,-4.64286 -5.71428,15.35715 11.07142,-20.35715 c -2.50604,4.36105 14.76191,21.90477 22.14286,32.85715 -5.77097,-14.43959 -14.29756,-28.09186 -13.92857,-44.28572 l 18.21429,20.35715 c -9.52346,-12.04811 -14.00606,-31.15343 -18.92858,-49.64286 8.31341,10.09964 17.96454,13.51065 27.14286,19.28572 -7.95052,-8.80946 -19.10429,-14.79784 -21.42857,-31.07143 6.79788,6.23915 12.28643,7.24095 18.21429,10 -21.05199,-7.99165 -24.01834,-36.96147 -44.28572,-47.5 7.49426,4.79129 12.34225,-4.31032 23.21429,18.21428 -7.3875,-24.96729 -19.7945,-24.83704 -31.78572,-26.78571 4.90528,-24.2469 -8.80921,-17.46083 -17.14285,-19.64286 15.15154,8.33334 11.26858,16.66667 11.07142,25 -13.29297,-42.18523 -40.5344,-28.57665 -61.42856,-40.35714 l 35.35714,23.57143 c -11.69445,-8.22506 -23.82206,-14.99212 -68.57143,15 -17.25193,0.68008 -22.72142,-7.80397 -32.14286,-13.21429 9.20139,9.8023 14.47264,24.65764 29.64286,26.78572 -5.40122,4.05321 -15.09494,3.55497 -27.14286,0 6.72509,4.45189 13.15869,9.55961 23.57143,5.71428 -10.87069,9.56813 -20.90364,20.81176 -28.92857,36.07143 11.53651,-20.7389 20.58479,-20.32788 30.35714,-26.07143 l -21.07142,27.14286 c -5.59524,6.77107 -11.19048,6.41327 -16.78572,8.92857 l 26.07143,-7.5 c -8.84266,16.15632 -10.8463,31.17279 -14.28571,46.42857 4.91277,-13.20606 10.6829,-22.98269 17.5,-28.57143 -5.07616,12.37966 -4.00019,30.78092 -4.64286,47.5 2.2619,-13.63805 4.52381,-29.42749 6.78571,-39.64286 l 15,27.5 -0.35714,-12.5 -0.71429,-7.5 2.5,-2.5 1.07143,2.5 c -1.23858,35.9031 1.88643,96.65881 -17.5,114.64286 z"
       id="path5069"
       inkscape:connector-curvature="0"
       sodipodi:nodetypes="ccccccccccccccccccccccccccccccccccccccccccccccccccccccccccccccccccccccccccccc" />
  </g>
</svg>
