<?xml version="1.0" encoding="UTF-8" standalone="no"?>
<!-- Created with Inkscape (http://www.inkscape.org/) -->

<svg
   xmlns:dc="http://purl.org/dc/elements/1.1/"
   xmlns:cc="http://creativecommons.org/ns#"
   xmlns:rdf="http://www.w3.org/1999/02/22-rdf-syntax-ns#"
   xmlns:svg="http://www.w3.org/2000/svg"
   xmlns="http://www.w3.org/2000/svg"
   xmlns:xlink="http://www.w3.org/1999/xlink"
   xmlns:sodipodi="http://sodipodi.sourceforge.net/DTD/sodipodi-0.dtd"
   xmlns:inkscape="http://www.inkscape.org/namespaces/inkscape"
   width="210mm"
   height="297mm"
   viewBox="0 0 744.09448819 1052.3622047"
   id="svg2"
   version="1.1"
   inkscape:version="0.91 r13725"
   sodipodi:docname="3.svg"
   inkscape:export-filename="C:\Users\Andrea\Desktop\quien es quien\img\3.png"
   inkscape:export-xdpi="90"
   inkscape:export-ydpi="90">
  <defs
     id="defs4">
    <radialGradient
       inkscape:collect="always"
       xlink:href="#linearGradient4311"
       id="radialGradient4317"
       cx="130.24619"
       cy="406.22498"
       fx="130.24619"
       fy="406.22498"
       r="105.10714"
       gradientTransform="matrix(1.2047231,-0.02048582,0.0275676,1.6211872,150.86836,-248.09923)"
       gradientUnits="userSpaceOnUse" />
    <linearGradient
       inkscape:collect="always"
       id="linearGradient4311">
      <stop
         style="stop-color:#ffff00;stop-opacity:1"
         offset="0"
         id="stop4313" />
      <stop
         style="stop-color:#800000;stop-opacity:1"
         offset="1"
         id="stop4315" />
    </linearGradient>
  </defs>
  <sodipodi:namedview
     id="base"
     pagecolor="#ffffff"
     bordercolor="#666666"
     borderopacity="1.0"
     inkscape:pageopacity="0.0"
     inkscape:pageshadow="2"
     inkscape:zoom="1.979899"
     inkscape:cx="247.94154"
     inkscape:cy="638.02585"
     inkscape:document-units="px"
     inkscape:current-layer="layer1"
     showgrid="false"
     inkscape:window-width="1920"
     inkscape:window-height="1017"
     inkscape:window-x="-8"
     inkscape:window-y="-8"
     inkscape:window-maximized="1" />
  <metadata
     id="metadata7">
    <rdf:RDF>
      <cc:Work
         rdf:about="">
        <dc:format>image/svg+xml</dc:format>
        <dc:type
           rdf:resource="http://purl.org/dc/dcmitype/StillImage" />
        <dc:title />
      </cc:Work>
    </rdf:RDF>
  </metadata>
  <g
     inkscape:label="Capa 1"
     inkscape:groupmode="layer"
     id="layer1">
    <rect
       style="fill:url(#radialGradient4317);fill-opacity:1;fill-rule:evenodd;stroke:#000000;stroke-width:2.16027188;stroke-linecap:butt;stroke-linejoin:miter;stroke-miterlimit:4;stroke-dasharray:none;stroke-opacity:1"
       id="rect3347"
       width="224.89973"
       height="315.55399"
       x="212.31418"
       y="240.76398"
       ry="0" />
    <g
       id="g3406"
       transform="translate(-10.934587,25.000215)">
      <path
         sodipodi:nodetypes="ccccccc"
         inkscape:connector-curvature="0"
         id="path4138"
         d="m 300.71429,398.79078 c -0.0754,18.30161 8.87367,41.07139 -6.42857,54.28571 L 252.14286,471.64792 419.28571,470.93363 370,453.07649 c -13.1586,-18.09524 -3.14769,-36.19047 -4.28571,-54.28571 z"
         style="fill:#f1d5c2;fill-opacity:1;fill-rule:evenodd;stroke:#e7cbb8;stroke-width:1px;stroke-linecap:butt;stroke-linejoin:miter;stroke-opacity:1" />
      <path
         d="m 393.6976,352.00507 a 58.697598,76.197586 0 0 1 -58.568,76.1974 58.697598,76.197586 0 0 1 -58.82663,-75.86094 58.697598,76.197586 0 0 1 58.30825,-76.53238 58.697598,76.197586 0 0 1 59.08409,75.52299"
         sodipodi:open="true"
         sodipodi:end="6.2743539"
         sodipodi:start="0"
         sodipodi:ry="76.197586"
         sodipodi:rx="58.697598"
         sodipodi:cy="352.00507"
         sodipodi:cx="335"
         sodipodi:type="arc"
         id="path3336"
         style="fill:#f1d5c2;fill-opacity:1;fill-rule:nonzero;stroke:#e7cbb8;stroke-width:1.74770379;stroke-linecap:round;stroke-linejoin:round;stroke-miterlimit:4;stroke-dasharray:none;stroke-opacity:1" />
    </g>
    <path
       style="fill:#030e01;fill-opacity:1;fill-rule:evenodd;stroke:#000000;stroke-width:0.7958039px;stroke-linecap:butt;stroke-linejoin:miter;stroke-opacity:1"
       d="m 268.97607,401.45709 -5.26191,-11.74693 c -5.98336,-17.957 -2.04998,-27.72545 1.91188,-46.5884 -2.34317,3.80786 -4.89727,6.98293 -5.94962,14.66327 -1.1959,-12.56055 3.51429,-20.19936 5.94962,-29.73388 l -8.13114,8.5536 8.13114,-21.38395 c 0.60336,-9.6665 4.67502,-16.36499 8.32945,-23.42052 -0.39136,4.41255 -1.50557,8.82512 0.59495,13.23767 10.60736,-17.89138 11.20525,-16.33011 26.97159,-23.01319 -2.67867,2.39677 -6.6847,2.97613 -7.93281,7.33164 10.68857,-2.81123 20.65699,-8.95027 33.31783,-2.64754 l -8.92442,4.88777 c 15.76205,-2.98653 27.92688,-0.59996 37.8792,5.09141 l -8.92444,2.24022 c 14.03041,1.0743 22.57277,8.25395 30.34304,16.29254 l -8.72609,0 c 10.50046,7.6627 18.67004,17.01503 20.22868,31.15947 l -10.90763,-7.5353 c 6.45441,21.5665 8.66619,26.12555 5.35609,45.87142 l -8.58056,16.77322 c 1.09168,-13.69315 1.17315,-26.91486 -7.68315,-35.96562 l -6.34624,5.70239 c 1.76289,-5.45346 2.13217,-11.11139 0.19831,-17.10716 l -4.75969,11.81209 c -3.69593,-6.9511 -4.98972,-15.54673 -11.50258,-20.56933 l -4.36306,15.0706 c -4.08171,-13.66389 -10.79182,-13.83229 -16.85724,-17.31082 -15.1508,4.66826 -13.25918,13.48355 -14.6757,20.56931 -6.2833,-4.88696 -6.01789,-11.45512 -6.14794,-17.92178 -4.73537,6.45002 -6.8271,13.91805 -7.33786,21.99492 -4.99054,-2.88007 -8.0168,-8.36035 -7.33784,-15.47791 -3.10402,6.6932 -4.3551,13.19614 -2.18153,19.34738 -3.36067,-4.0163 -5.69591,-9.08565 -6.94121,-15.27425 -1.73378,6.75014 -2.20801,12.92543 0.79327,17.51447 l -3.9664,-4.68409 c -6.37664,10.22962 -7.44205,19.62009 -6.56599,32.26728 z"
       id="path4327"
       inkscape:connector-curvature="0"
       sodipodi:nodetypes="ccccccccccccccccccccccccccccccccccccc" />
    <g
       id="g4271"
       transform="translate(-12.225765,38.756499)"
       style="stroke:#7d0000;stroke-opacity:1">
      <g
         id="g4248"
         style="stroke:#7d0000;stroke-opacity:1">
        <rect
           style="fill:#3ebfd4;fill-opacity:0.20454544;fill-rule:nonzero;stroke:#7d0000;stroke-width:1.54397464;stroke-linecap:round;stroke-linejoin:round;stroke-miterlimit:4;stroke-dasharray:none;stroke-opacity:1"
           id="rect4214"
           width="42.098885"
           height="20.313168"
           x="288.23627"
           y="330.94006"
           ry="7.6174378" />
        <rect
           style="fill:#3ebfd4;fill-opacity:0.20454544;fill-rule:nonzero;stroke:#7d0000;stroke-width:1.54397464;stroke-linecap:round;stroke-linejoin:round;stroke-miterlimit:4;stroke-dasharray:none;stroke-opacity:1"
           id="rect4214-0"
           width="42.098885"
           height="20.313168"
           x="340.022"
           y="330.94006"
           ry="7.6174378" />
      </g>
      <path
         sodipodi:nodetypes="cc"
         inkscape:connector-curvature="0"
         id="path4252"
         d="m 330.35714,335.93363 c 2.64738,-2.03812 4.97399,-3.57719 10.35715,0"
         style="fill:none;fill-rule:evenodd;stroke:#7d0000;stroke-width:1px;stroke-linecap:butt;stroke-linejoin:miter;stroke-opacity:1" />
      <path
         sodipodi:nodetypes="cc"
         inkscape:connector-curvature="0"
         id="path4254"
         d="m 381.875,337.27292 c 5.71429,-3.21428 6.69643,-3.83929 6.69643,-3.83929"
         style="fill:none;fill-rule:evenodd;stroke:#7d0000;stroke-width:1px;stroke-linecap:butt;stroke-linejoin:miter;stroke-opacity:1" />
      <path
         sodipodi:nodetypes="cc"
         inkscape:connector-curvature="0"
         id="path4254-9"
         d="m 289.07416,336.06058 c -5.71429,-3.21428 -6.69643,-3.83929 -6.69643,-3.83929"
         style="fill:none;fill-rule:evenodd;stroke:#7d0000;stroke-width:1px;stroke-linecap:butt;stroke-linejoin:miter;stroke-opacity:1" />
    </g>
  </g>
</svg>
