<?xml version="1.0" encoding="UTF-8" standalone="no"?>
<!-- Created with Inkscape (http://www.inkscape.org/) -->

<svg
   xmlns:dc="http://purl.org/dc/elements/1.1/"
   xmlns:cc="http://creativecommons.org/ns#"
   xmlns:rdf="http://www.w3.org/1999/02/22-rdf-syntax-ns#"
   xmlns:svg="http://www.w3.org/2000/svg"
   xmlns="http://www.w3.org/2000/svg"
   xmlns:xlink="http://www.w3.org/1999/xlink"
   xmlns:sodipodi="http://sodipodi.sourceforge.net/DTD/sodipodi-0.dtd"
   xmlns:inkscape="http://www.inkscape.org/namespaces/inkscape"
   width="210mm"
   height="297mm"
   viewBox="0 0 210 297"
   version="1.1"
   id="svg8"
   inkscape:version="0.92.3 (d244b95, 2018-08-02)"
   sodipodi:docname="3.svg">
  <defs
     id="defs2">
    <linearGradient
       id="linearGradient4311"
       inkscape:collect="always">
      <stop
         id="stop4313"
         offset="0"
         style="stop-color:#ffff00;stop-opacity:1" />
      <stop
         id="stop4315"
         offset="1"
         style="stop-color:#800000;stop-opacity:1" />
    </linearGradient>
    <radialGradient
       gradientUnits="userSpaceOnUse"
       gradientTransform="matrix(0.33999964,-0.00578155,0.00778019,0.45753507,72.797679,-66.704985)"
       r="105.10714"
       fy="406.22498"
       fx="130.24619"
       cy="406.22498"
       cx="130.24619"
       id="radialGradient4317-7"
       xlink:href="#linearGradient4311"
       inkscape:collect="always" />
  </defs>
  <sodipodi:namedview
     id="base"
     pagecolor="#ffffff"
     bordercolor="#666666"
     borderopacity="1.0"
     inkscape:pageopacity="0.0"
     inkscape:pageshadow="2"
     inkscape:zoom="0.98994949"
     inkscape:cx="541.09323"
     inkscape:cy="596.04221"
     inkscape:document-units="mm"
     inkscape:current-layer="layer1"
     showgrid="false"
     inkscape:window-width="1299"
     inkscape:window-height="713"
     inkscape:window-x="67"
     inkscape:window-y="27"
     inkscape:window-maximized="1" />
  <metadata
     id="metadata5">
    <rdf:RDF>
      <cc:Work
         rdf:about="">
        <dc:format>image/svg+xml</dc:format>
        <dc:type
           rdf:resource="http://purl.org/dc/dcmitype/StillImage" />
        <dc:title></dc:title>
      </cc:Work>
    </rdf:RDF>
  </metadata>
  <g
     inkscape:label="Capa 1"
     inkscape:groupmode="layer"
     id="layer1">
    <rect
       style="fill:url(#radialGradient4317-7);fill-opacity:1;fill-rule:evenodd;stroke:#000000;stroke-width:0.60967672;stroke-linecap:butt;stroke-linejoin:miter;stroke-miterlimit:4;stroke-dasharray:none;stroke-opacity:1"
       id="rect3347-9"
       width="63.471706"
       height="89.056351"
       x="90.139053"
       y="71.263084"
       ry="0" />
    <g
       id="g3406"
       transform="matrix(0.28222223,0,0,0.28644276,27.13329,8.793215)">
      <path
         sodipodi:nodetypes="ccccccc"
         inkscape:connector-curvature="0"
         id="path4138"
         d="m 300.71429,398.79078 c -0.0754,18.30161 8.87367,41.07139 -6.42857,54.28571 L 252.14286,471.64792 419.28571,470.93363 370,453.07649 c -13.1586,-18.09524 -3.14769,-36.19047 -4.28571,-54.28571 z"
         style="fill:#f1d5c2;fill-opacity:1;fill-rule:evenodd;stroke:#e7cbb8;stroke-width:1px;stroke-linecap:butt;stroke-linejoin:miter;stroke-opacity:1" />
      <path
         d="m 393.6976,352.00507 a 58.697598,76.197586 0 0 1 -58.568,76.1974 58.697598,76.197586 0 0 1 -58.82663,-75.86094 58.697598,76.197586 0 0 1 58.30825,-76.53238 58.697598,76.197586 0 0 1 59.08409,75.52299"
         sodipodi:open="true"
         sodipodi:end="6.2743539"
         sodipodi:start="0"
         sodipodi:ry="76.197586"
         sodipodi:rx="58.697598"
         sodipodi:cy="352.00507"
         sodipodi:cx="335"
         sodipodi:type="arc"
         id="path3336"
         style="fill:#f1d5c2;fill-opacity:1;fill-rule:nonzero;stroke:#e7cbb8;stroke-width:1.74770379;stroke-linecap:round;stroke-linejoin:round;stroke-miterlimit:4;stroke-dasharray:none;stroke-opacity:1" />
    </g>
    <g
       id="g244"
       transform="translate(-1.7364721,-2.6688164)">
      <path
         sodipodi:nodetypes="ccccccccccccccccccccccccccccccccccccc"
         inkscape:connector-curvature="0"
         id="path4327"
         d="m 107.73392,116.89383 -1.48503,-3.36482 c -1.68864,-5.14365 -0.57855,-7.94176 0.53957,-13.34491 -0.66129,1.09073 -1.38212,2.00021 -1.67911,4.20019 -0.33751,-3.59788 0.99181,-5.785965 1.67911,-8.517059 l -2.29479,2.450117 2.29479,-6.125278 c 0.17028,-2.768899 1.3194,-4.687633 2.35076,-6.708638 -0.11045,1.263943 -0.42491,2.527892 0.16791,3.791835 2.99363,-5.124857 3.16237,-4.677642 7.61198,-6.591962 -0.75598,0.686537 -1.88657,0.852491 -2.23882,2.100095 3.01656,-0.805256 5.82987,-2.56374 9.40304,-0.758368 l -2.51867,1.400066 c 4.4484,-0.85547 7.88158,-0.171854 10.69035,1.458397 l -2.51868,0.641695 c 3.9597,0.307726 6.37054,2.364284 8.56348,4.66688 h -2.46269 c 2.96346,2.194925 5.2691,4.873833 5.70898,8.9254 l -3.07838,-2.158427 c 1.82158,6.177567 2.4458,7.483477 1.51161,13.139537 l -2.42162,4.80457 c 0.30809,-3.92231 0.33109,-7.70957 -2.16836,-10.3021 l -1.79105,1.63341 c 0.49753,-1.5621 0.60175,-3.18277 0.056,-4.90022 l -1.34329,3.38349 c -1.04308,-1.99109 -1.40821,-4.45325 -3.24629,-5.89194 l -1.23135,4.31687 c -1.15195,-3.91392 -3.04569,-3.96216 -4.75749,-4.95856 -4.27589,1.33719 -3.74203,3.86226 -4.1418,5.89193 -1.77329,-1.39984 -1.69839,-3.28124 -1.73509,-5.13357 -1.33643,1.84757 -1.92676,3.98673 -2.07091,6.30029 -1.40844,-0.82498 -2.26252,-2.39476 -2.0709,-4.43354 -0.87602,1.91722 -1.2291,3.77994 -0.61567,5.54192 -0.94846,-1.15044 -1.60752,-2.60252 -1.95897,-4.3752 -0.48931,1.93353 -0.62315,3.7024 0.22388,5.0169 l -1.11941,-1.34173 c -1.79963,2.9302 -2.10031,5.62004 -1.85306,9.24273 z"
         style="fill:#030e01;fill-opacity:1;fill-rule:evenodd;stroke:#000000;stroke-width:0.22626668px;stroke-linecap:butt;stroke-linejoin:miter;stroke-opacity:1" />
      <g
         style="stroke:#7d0000;stroke-opacity:1"
         transform="matrix(0.28222223,0,0,0.28644276,28.372506,13.000873)"
         id="g4271">
        <g
           style="stroke:#7d0000;stroke-opacity:1"
           id="g4248">
          <rect
             ry="7.6174378"
             y="330.94006"
             x="288.23627"
             height="20.313168"
             width="42.098885"
             id="rect4214"
             style="fill:#3ebfd4;fill-opacity:0.20454544;fill-rule:nonzero;stroke:#7d0000;stroke-width:1.54397464;stroke-linecap:round;stroke-linejoin:round;stroke-miterlimit:4;stroke-dasharray:none;stroke-opacity:1" />
          <rect
             ry="7.6174378"
             y="330.94006"
             x="340.022"
             height="20.313168"
             width="42.098885"
             id="rect4214-0"
             style="fill:#3ebfd4;fill-opacity:0.20454544;fill-rule:nonzero;stroke:#7d0000;stroke-width:1.54397464;stroke-linecap:round;stroke-linejoin:round;stroke-miterlimit:4;stroke-dasharray:none;stroke-opacity:1" />
        </g>
        <path
           style="fill:none;fill-rule:evenodd;stroke:#7d0000;stroke-width:1px;stroke-linecap:butt;stroke-linejoin:miter;stroke-opacity:1"
           d="m 330.35714,335.93363 c 2.64738,-2.03812 4.97399,-3.57719 10.35715,0"
           id="path4252"
           inkscape:connector-curvature="0"
           sodipodi:nodetypes="cc" />
        <path
           style="fill:none;fill-rule:evenodd;stroke:#7d0000;stroke-width:1px;stroke-linecap:butt;stroke-linejoin:miter;stroke-opacity:1"
           d="m 381.875,337.27292 c 5.71429,-3.21428 6.69643,-3.83929 6.69643,-3.83929"
           id="path4254"
           inkscape:connector-curvature="0"
           sodipodi:nodetypes="cc" />
        <path
           style="fill:none;fill-rule:evenodd;stroke:#7d0000;stroke-width:1px;stroke-linecap:butt;stroke-linejoin:miter;stroke-opacity:1"
           d="m 289.07416,336.06058 c -5.71429,-3.21428 -6.69643,-3.83929 -6.69643,-3.83929"
           id="path4254-9"
           inkscape:connector-curvature="0"
           sodipodi:nodetypes="cc" />
      </g>
    </g>
  </g>
</svg>
