<?xml version="1.0" encoding="UTF-8" standalone="no"?>
<!-- Created with Inkscape (http://www.inkscape.org/) -->

<svg
   xmlns:dc="http://purl.org/dc/elements/1.1/"
   xmlns:cc="http://creativecommons.org/ns#"
   xmlns:rdf="http://www.w3.org/1999/02/22-rdf-syntax-ns#"
   xmlns:svg="http://www.w3.org/2000/svg"
   xmlns="http://www.w3.org/2000/svg"
   xmlns:xlink="http://www.w3.org/1999/xlink"
   xmlns:sodipodi="http://sodipodi.sourceforge.net/DTD/sodipodi-0.dtd"
   xmlns:inkscape="http://www.inkscape.org/namespaces/inkscape"
   width="210mm"
   height="297mm"
   viewBox="0 0 744.09448819 1052.3622047"
   id="svg2"
   version="1.1"
   inkscape:version="0.91 r13725"
   sodipodi:docname="5.svg"
   inkscape:export-filename="C:\Users\Andrea\Desktop\quien es quien\img\5.png"
   inkscape:export-xdpi="90"
   inkscape:export-ydpi="90">
  <defs
     id="defs4">
    <radialGradient
       inkscape:collect="always"
       xlink:href="#linearGradient4311"
       id="radialGradient4317"
       cx="130.24619"
       cy="406.22498"
       fx="130.24619"
       fy="406.22498"
       r="105.10714"
       gradientTransform="matrix(1.2047231,-0.02048582,0.0275676,1.6211872,159.52718,-226.06371)"
       gradientUnits="userSpaceOnUse" />
    <linearGradient
       inkscape:collect="always"
       id="linearGradient4311">
      <stop
         style="stop-color:#ffff00;stop-opacity:1"
         offset="0"
         id="stop4313" />
      <stop
         style="stop-color:#800000;stop-opacity:1"
         offset="1"
         id="stop4315" />
    </linearGradient>
  </defs>
  <sodipodi:namedview
     id="base"
     pagecolor="#ffffff"
     bordercolor="#666666"
     borderopacity="1.0"
     inkscape:pageopacity="0.0"
     inkscape:pageshadow="2"
     inkscape:zoom="1.979899"
     inkscape:cx="229.17784"
     inkscape:cy="664.79819"
     inkscape:document-units="px"
     inkscape:current-layer="layer1"
     showgrid="false"
     inkscape:window-width="1920"
     inkscape:window-height="1017"
     inkscape:window-x="-8"
     inkscape:window-y="-8"
     inkscape:window-maximized="1" />
  <metadata
     id="metadata7">
    <rdf:RDF>
      <cc:Work
         rdf:about="">
        <dc:format>image/svg+xml</dc:format>
        <dc:type
           rdf:resource="http://purl.org/dc/dcmitype/StillImage" />
        <dc:title />
      </cc:Work>
    </rdf:RDF>
  </metadata>
  <g
     inkscape:label="Capa 1"
     inkscape:groupmode="layer"
     id="layer1">
    <rect
       style="fill:url(#radialGradient4317);fill-opacity:1;fill-rule:evenodd;stroke:#000000;stroke-width:2.16027188;stroke-linecap:butt;stroke-linejoin:miter;stroke-miterlimit:4;stroke-dasharray:none;stroke-opacity:1"
       id="rect3347"
       width="224.89973"
       height="315.55399"
       x="220.97299"
       y="262.7995"
       ry="0" />
    <path
       style="fill:#573716;fill-opacity:1;fill-rule:evenodd;stroke:#000000;stroke-width:1px;stroke-linecap:butt;stroke-linejoin:miter;stroke-opacity:1"
       d="m 276.02418,418.99655 -0.50508,87.3782 130.81476,4.04061 -12.12183,-105.05587 z"
       id="path4497"
       inkscape:connector-curvature="0" />
    <g
       id="g4881"
       transform="translate(0,47.035737)">
      <path
         sodipodi:nodetypes="ccccccc"
         inkscape:connector-curvature="0"
         id="path4138"
         d="m 300.71429,398.79078 c -0.0754,18.30161 8.87367,41.07139 -6.42857,54.28571 L 252.14286,471.64792 419.28571,470.93363 370,453.07649 c -13.1586,-18.09524 -3.14769,-36.19047 -4.28571,-54.28571 z"
         style="fill:#f1d5c2;fill-opacity:1;fill-rule:evenodd;stroke:#e7cbb8;stroke-width:1px;stroke-linecap:butt;stroke-linejoin:miter;stroke-opacity:1" />
      <path
         d="m 393.6976,352.00507 a 58.697598,76.197586 0 0 1 -58.568,76.1974 58.697598,76.197586 0 0 1 -58.82663,-75.86094 58.697598,76.197586 0 0 1 58.30825,-76.53238 58.697598,76.197586 0 0 1 59.08409,75.52299"
         sodipodi:open="true"
         sodipodi:end="6.2743539"
         sodipodi:start="0"
         sodipodi:ry="76.197586"
         sodipodi:rx="58.697598"
         sodipodi:cy="352.00507"
         sodipodi:cx="335"
         sodipodi:type="arc"
         id="path3336"
         style="fill:#f1d5c2;fill-opacity:1;fill-rule:nonzero;stroke:#e7cbb8;stroke-width:1.74770379;stroke-linecap:round;stroke-linejoin:round;stroke-miterlimit:4;stroke-dasharray:none;stroke-opacity:1" />
    </g>
    <g
       style="fill:#573716;fill-opacity:1;stroke:#000000;stroke-opacity:1"
       transform="matrix(1.7008393,0,0,1.2644081,-535.29971,68.436738)"
       id="g4480">
      <g
         id="g4343">
        <path
           style="fill:#573716;fill-opacity:1;fill-rule:evenodd;stroke:#000000;stroke-width:0.98377281px;stroke-linecap:butt;stroke-linejoin:miter;stroke-opacity:1"
           d="m 534.61185,381.84362 c 8.26273,-56.52823 2.71427,-32.35991 2.11899,-67.90682 -3.53662,-15.57497 -0.29483,-29.98247 -0.30986,-44.95089 -4.17303,-5.17061 -4.54535,-13.48336 -5.62102,-21.21463 -6.88032,-6.37071 -12.26325,-11.81297 -15.8855,-16.16353 l 6.10982,9.34454 c -6.54796,-5.21082 -14.5253,-9.23994 -18.08503,-16.92119 -7.65762,7.91916 -10.86089,11.99843 -18.51851,25.36114 -0.80085,9.63277 -3.23865,19.13566 3.1218,27.42288 l -6.84299,-7.3241 c 9.99436,21.02873 7.25297,35.19079 2.44393,48.23803 -0.57215,19.38578 2.28068,9.51776 -2.71571,26.9441 0.18831,7.88855 -0.0937,15.56884 -4.39906,21.46719 l 3.1771,13.89053 -5.13223,-10.60731 c -1.25011,6.47582 -7.83395,8.54212 -11.97522,12.62775 2.98932,-5.30366 6.57174,-10.60732 7.08737,-15.91097 l -11.24204,9.09198 c 0.0523,6.04577 4.83484,9.15852 7.82055,13.38543 -17.86272,-5.34573 -13.41368,-26.28906 -12.96849,-47.29222 l 9.51909,-24.18409 c -0.61461,-15.54205 6.54815,-28.11269 9.09781,-42.34676 2.68656,-16.96134 -10.21102,-27.539 9.0974,-62.21298 8.64331,-15.52162 20.17155,-18.48411 32.25978,-18.94163 17.48074,-0.66163 27.58637,10.24029 32.01537,24.24529 9.11915,28.83577 13.05408,63.47092 13.61265,93.38797 -1.85217,24.3823 12.55463,23.78295 14.00537,49.76308 0.0373,12.08345 -3.86101,23.65365 -6.59485,36.80213 2.80492,-16.08632 2.77692,-27.72678 3.33378,-40.28508 0.31061,16.15959 -5.89906,24.9246 -13.14086,39.13302 0.97659,-10.43894 6.65715,-22.67544 4.37687,-33.11438 -4.60074,7.40477 -9.08127,23.47871 -19.17591,27.18838 13.3077,-21.44763 12.36808,-30.42791 3.59992,-62.7525 2.6033,25.69073 -1.32457,35.35314 -10.19032,53.83564 z"
           id="path4420"
           inkscape:connector-curvature="0"
           sodipodi:nodetypes="ccccccccccccccccccccccsssccccccccc" />
        <g
           id="g4330">
          <path
             sodipodi:nodetypes="cc"
             inkscape:connector-curvature="0"
             id="path4422"
             d="m 495.85187,207.1099 c 4.44651,5.38085 6.95806,11.37205 6.84299,17.42631"
             style="fill:none;fill-opacity:1;fill-rule:evenodd;stroke:#000000;stroke-width:0.49188641;stroke-linecap:butt;stroke-linejoin:miter;stroke-miterlimit:4;stroke-dasharray:none;stroke-opacity:1" />
          <path
             sodipodi:nodetypes="cc"
             inkscape:connector-curvature="0"
             id="path4424"
             d="m 507.5827,223.27343 c 2.90433,3.42226 5.93098,6.97094 7.57616,9.09199"
             style="fill:none;fill-opacity:1;fill-rule:evenodd;stroke:#000000;stroke-width:0.49188641;stroke-linecap:butt;stroke-linejoin:miter;stroke-miterlimit:4;stroke-dasharray:none;stroke-opacity:1" />
          <path
             sodipodi:nodetypes="cc"
             inkscape:connector-curvature="0"
             id="path4426"
             d="m 519.06913,215.44422 c 1.66702,13.79815 6.8882,24.84165 16.37429,32.57962"
             style="fill:none;fill-opacity:1;fill-rule:evenodd;stroke:#000000;stroke-width:0.49188641;stroke-linecap:butt;stroke-linejoin:miter;stroke-miterlimit:4;stroke-dasharray:none;stroke-opacity:1" />
          <path
             sodipodi:nodetypes="ccc"
             inkscape:connector-curvature="0"
             id="path4428"
             d="m 457.42973,375.66549 c 6.33761,-9.9321 8.92269,-26.19115 9.44459,-38.79435 0.46793,10.01803 4.61645,19.83631 2.67261,29.85434"
             style="fill:none;fill-opacity:1;fill-rule:evenodd;stroke:#000000;stroke-width:0.49188641;stroke-linecap:butt;stroke-linejoin:miter;stroke-miterlimit:4;stroke-dasharray:none;stroke-opacity:1" />
          <path
             sodipodi:nodetypes="cc"
             inkscape:connector-curvature="0"
             id="path4430"
             d="m 473.76714,370.14835 c 1.35485,-16.98053 -1.50645,-30.4755 -3.17709,-44.95481"
             style="fill:none;fill-opacity:1;fill-rule:evenodd;stroke:#000000;stroke-width:0.49188641;stroke-linecap:butt;stroke-linejoin:miter;stroke-miterlimit:4;stroke-dasharray:none;stroke-opacity:1" />
          <path
             sodipodi:nodetypes="cc"
             inkscape:connector-curvature="0"
             id="path4434"
             d="m 462.45957,328.52525 c -7.87987,16.12751 -7.79089,31.77061 -4.64346,47.2278"
             style="fill:none;fill-opacity:1;fill-rule:evenodd;stroke:#000000;stroke-width:0.49188641;stroke-linecap:butt;stroke-linejoin:miter;stroke-miterlimit:4;stroke-dasharray:none;stroke-opacity:1" />
          <path
             sodipodi:nodetypes="ccc"
             inkscape:connector-curvature="0"
             id="path4436"
             d="m 471.90143,267.72313 c 1.29269,-1.71698 1.7595,-5.99438 2.44392,-9.59708 0.48212,20.4979 -1.2291,41.64977 -11.82675,60.23937"
             style="fill:none;fill-opacity:1;fill-rule:evenodd;stroke:#000000;stroke-width:0.49188641;stroke-linecap:butt;stroke-linejoin:miter;stroke-miterlimit:4;stroke-dasharray:none;stroke-opacity:1" />
          <path
             sodipodi:nodetypes="cc"
             inkscape:connector-curvature="0"
             id="path4438"
             d="m 536.42098,227.06176 c 0.27698,13.99997 -2.59583,29.12232 0,41.92415"
             style="fill:none;fill-opacity:1;fill-rule:evenodd;stroke:#000000;stroke-width:0.49188641;stroke-linecap:butt;stroke-linejoin:miter;stroke-miterlimit:4;stroke-dasharray:none;stroke-opacity:1" />
          <path
             sodipodi:nodetypes="cc"
             inkscape:connector-curvature="0"
             id="path4440"
             d="m 545.50684,271.32331 c -2.53002,20.22412 -3.25123,43.19971 -0.5465,58.56976"
             style="fill:none;fill-opacity:1;fill-rule:evenodd;stroke:#000000;stroke-width:0.49188641;stroke-linecap:butt;stroke-linejoin:miter;stroke-miterlimit:4;stroke-dasharray:none;stroke-opacity:1" />
          <path
             sodipodi:nodetypes="cc"
             inkscape:connector-curvature="0"
             id="path4442"
             d="m 547.34491,295.27047 c -0.51709,26.68666 14.44413,43.98609 13.29855,70.67275"
             style="fill:none;fill-opacity:1;fill-rule:evenodd;stroke:#000000;stroke-width:0.49188641;stroke-linecap:butt;stroke-linejoin:miter;stroke-miterlimit:4;stroke-dasharray:none;stroke-opacity:1" />
          <path
             sodipodi:nodetypes="cc"
             inkscape:connector-curvature="0"
             id="path4444"
             d="m 561.17286,340.5075 c 0.52076,7.52256 8.51723,8.56408 7.88985,17.69535"
             style="fill:none;fill-opacity:1;fill-rule:evenodd;stroke:#000000;stroke-width:0.49188641;stroke-linecap:butt;stroke-linejoin:miter;stroke-miterlimit:4;stroke-dasharray:none;stroke-opacity:1" />
        </g>
      </g>
    </g>
  </g>
</svg>
