<?xml version="1.0" encoding="UTF-8" standalone="no"?>
<!-- Created with Inkscape (http://www.inkscape.org/) -->

<svg
   xmlns:dc="http://purl.org/dc/elements/1.1/"
   xmlns:cc="http://creativecommons.org/ns#"
   xmlns:rdf="http://www.w3.org/1999/02/22-rdf-syntax-ns#"
   xmlns:svg="http://www.w3.org/2000/svg"
   xmlns="http://www.w3.org/2000/svg"
   xmlns:xlink="http://www.w3.org/1999/xlink"
   xmlns:sodipodi="http://sodipodi.sourceforge.net/DTD/sodipodi-0.dtd"
   xmlns:inkscape="http://www.inkscape.org/namespaces/inkscape"
   width="210mm"
   height="297mm"
   viewBox="0 0 744.09448819 1052.3622047"
   id="svg2"
   version="1.1"
   inkscape:version="0.91 r13725"
   sodipodi:docname="8.svg"
   inkscape:export-filename="C:\Users\Andrea\Desktop\quien es quien\svg\8.png"
   inkscape:export-xdpi="90"
   inkscape:export-ydpi="90">
  <defs
     id="defs4">
    <radialGradient
       inkscape:collect="always"
       xlink:href="#linearGradient4311"
       id="radialGradient4317"
       cx="130.24619"
       cy="406.22498"
       fx="130.24619"
       fy="406.22498"
       r="105.10714"
       gradientTransform="matrix(1.2047231,-0.02048582,0.0275676,1.6211872,167.53588,-282.19187)"
       gradientUnits="userSpaceOnUse" />
    <linearGradient
       inkscape:collect="always"
       id="linearGradient4311">
      <stop
         style="stop-color:#ffff00;stop-opacity:1"
         offset="0"
         id="stop4313" />
      <stop
         style="stop-color:#800000;stop-opacity:1"
         offset="1"
         id="stop4315" />
    </linearGradient>
  </defs>
  <sodipodi:namedview
     id="base"
     pagecolor="#ffffff"
     bordercolor="#666666"
     borderopacity="1.0"
     inkscape:pageopacity="0.0"
     inkscape:pageshadow="2"
     inkscape:zoom="1.4"
     inkscape:cx="63.905486"
     inkscape:cy="719.84663"
     inkscape:document-units="px"
     inkscape:current-layer="layer1"
     showgrid="false"
     inkscape:window-width="1920"
     inkscape:window-height="1017"
     inkscape:window-x="-8"
     inkscape:window-y="-8"
     inkscape:window-maximized="1" />
  <metadata
     id="metadata7">
    <rdf:RDF>
      <cc:Work
         rdf:about="">
        <dc:format>image/svg+xml</dc:format>
        <dc:type
           rdf:resource="http://purl.org/dc/dcmitype/StillImage" />
        <dc:title />
      </cc:Work>
    </rdf:RDF>
  </metadata>
  <g
     inkscape:label="Capa 1"
     inkscape:groupmode="layer"
     id="layer1">
    <rect
       style="fill:url(#radialGradient4317);fill-opacity:1;fill-rule:evenodd;stroke:#000000;stroke-width:2.16027188;stroke-linecap:butt;stroke-linejoin:miter;stroke-miterlimit:4;stroke-dasharray:none;stroke-opacity:1"
       id="rect3347"
       width="224.89973"
       height="315.55399"
       x="228.98169"
       y="206.67133"
       ry="0" />
    <g
       id="g3401"
       transform="translate(5.7329241,-9.0924364)">
      <path
         sodipodi:nodetypes="ccccccc"
         inkscape:connector-curvature="0"
         id="path4138"
         d="m 300.71429,398.79078 c -0.0754,18.30161 8.87367,41.07139 -6.42857,54.28571 L 252.14286,471.64792 419.28571,470.93363 370,453.07649 c -13.1586,-18.09524 -3.14769,-36.19047 -4.28571,-54.28571 z"
         style="fill:#f1d5c2;fill-opacity:1;fill-rule:evenodd;stroke:#e7cbb8;stroke-width:1px;stroke-linecap:butt;stroke-linejoin:miter;stroke-opacity:1" />
      <path
         d="m 393.6976,352.00507 a 58.697598,76.197586 0 0 1 -58.568,76.1974 58.697598,76.197586 0 0 1 -58.82663,-75.86094 58.697598,76.197586 0 0 1 58.30825,-76.53238 58.697598,76.197586 0 0 1 59.08409,75.52299"
         sodipodi:open="true"
         sodipodi:end="6.2743539"
         sodipodi:start="0"
         sodipodi:ry="76.197586"
         sodipodi:rx="58.697598"
         sodipodi:cy="352.00507"
         sodipodi:cx="335"
         sodipodi:type="arc"
         id="path3336"
         style="fill:#f1d5c2;fill-opacity:1;fill-rule:nonzero;stroke:#e7cbb8;stroke-width:1.74770379;stroke-linecap:round;stroke-linejoin:round;stroke-miterlimit:4;stroke-dasharray:none;stroke-opacity:1" />
    </g>
    <g
       id="g4271"
       transform="translate(-190.79284,-18.889629)"
       style="stroke:#7d0000;stroke-opacity:1" />
    <path
       style="fill:#0c0d0c;fill-rule:evenodd;stroke:#000000;stroke-width:1px;stroke-linecap:butt;stroke-linejoin:miter;stroke-opacity:1;fill-opacity:1"
       d="m 285,374.8622 c 0.39381,-24.24104 16.02007,-49.30546 0.35714,-72.67857 -21.1005,3.3399 -4.3091,51.35918 -0.35714,72.67857 z"
       id="path4360"
       inkscape:connector-curvature="0"
       sodipodi:nodetypes="ccc" />
    <path
       style="fill:#0c0d0c;fill-rule:evenodd;stroke:#000000;stroke-width:1px;stroke-linecap:butt;stroke-linejoin:miter;stroke-opacity:1;fill-opacity:1"
       d="m 398.08211,371.24926 c -2.89381,-21.02676 -23.69864,-62.87689 -8.03571,-86.25 29.34837,-7.1074 10.20196,62.43061 8.03571,86.25 z"
       id="path4360-6"
       inkscape:connector-curvature="0"
       sodipodi:nodetypes="ccc" />
    <path
       style="fill:#0c0a09;fill-rule:evenodd;stroke:#000000;stroke-width:1px;stroke-linecap:butt;stroke-linejoin:miter;stroke-opacity:1;fill-opacity:1"
       d="m 271.78571,302.18363 c 1.54975,-7.40805 4.64386,-12.88565 10,-15.53571 -13.46355,-3.35997 -2.19344,-10.33479 1.07143,-9.82143 l -5,-3.03571 c 3.59508,-5.33281 23.63854,-8.79649 8.57143,-16.25 17.1967,-10.12747 31.89196,-8.24804 46.78572,-7.32143 l -5.89286,-8.03572 c 52.33661,-7.65876 73.75771,18.99302 65.71428,42.5 -16.12764,50.15675 -26.78524,43.05643 -46.96428,52.14286 3.82874,-4.78193 7.96357,-9.47639 8.57143,-15.17857 -9.03651,8.66887 -20.61219,13.36151 -32.32143,16.60714 l 13.03571,-12.14286 -30.71428,13.75 8.21428,-25.35714 c -9.33051,9.33292 -18.28453,12.26568 -27.14285,13.57143 4.6826,-4.36264 3.52859,-5.0774 4.82142,-7.32143 -9.76908,5.77635 -13.74148,4.56696 -5,-11.96428 -2.89655,-3.79546 -2.86384,-10.35744 -13.75,-6.60715 z"
       id="path4386"
       inkscape:connector-curvature="0"
       sodipodi:nodetypes="cccccccccccccccccc" />
  </g>
</svg>
