<?xml version="1.0" encoding="UTF-8" standalone="no"?>
<!-- Created with Inkscape (http://www.inkscape.org/) -->

<svg
   xmlns:dc="http://purl.org/dc/elements/1.1/"
   xmlns:cc="http://creativecommons.org/ns#"
   xmlns:rdf="http://www.w3.org/1999/02/22-rdf-syntax-ns#"
   xmlns:svg="http://www.w3.org/2000/svg"
   xmlns="http://www.w3.org/2000/svg"
   xmlns:sodipodi="http://sodipodi.sourceforge.net/DTD/sodipodi-0.dtd"
   xmlns:inkscape="http://www.inkscape.org/namespaces/inkscape"
   width="210mm"
   height="297mm"
   viewBox="0 0 210 297"
   version="1.1"
   id="svg8"
   inkscape:version="0.92.3 (d244b95, 2018-08-02)"
   sodipodi:docname="home.svg">
  <defs
     id="defs2" />
  <sodipodi:namedview
     id="base"
     pagecolor="#ffffff"
     bordercolor="#666666"
     borderopacity="1.0"
     inkscape:pageopacity="0.0"
     inkscape:pageshadow="2"
     inkscape:zoom="0.7"
     inkscape:cx="265.53525"
     inkscape:cy="884.48914"
     inkscape:document-units="mm"
     inkscape:current-layer="layer1"
     showgrid="false"
     inkscape:window-width="1299"
     inkscape:window-height="713"
     inkscape:window-x="67"
     inkscape:window-y="27"
     inkscape:window-maximized="1" />
  <metadata
     id="metadata5">
    <rdf:RDF>
      <cc:Work
         rdf:about="">
        <dc:format>image/svg+xml</dc:format>
        <dc:type
           rdf:resource="http://purl.org/dc/dcmitype/StillImage" />
        <dc:title></dc:title>
      </cc:Work>
    </rdf:RDF>
  </metadata>
  <g
     inkscape:label="Capa 1"
     inkscape:groupmode="layer"
     id="layer1">
    <g
       id="g4551">
      <circle
         r="40.827381"
         style="fill:#01061e;fill-opacity:1;stroke-width:0.34845948"
         cy="51.504467"
         cx="83.910706"
         id="path3713" />
      <g
         style="fill:#faffff;fill-opacity:1"
         transform="matrix(0.69753962,0,0,0.619029,64.409915,16.346018)"
         id="g4545">
        <path
           sodipodi:type="star"
           style="fill:#faffff;fill-opacity:1;stroke-width:0.26458332"
           id="path4536"
           sodipodi:sides="3"
           sodipodi:cx="27.59226"
           sodipodi:cy="36.952377"
           sodipodi:r1="24.894833"
           sodipodi:r2="12.447416"
           sodipodi:arg1="0.52479577"
           sodipodi:arg2="1.5719933"
           inkscape:flatsided="true"
           inkscape:rounded="0.11"
           inkscape:randomized="0"
           d="M 49.136903,49.425591 C 46.760436,53.530397 8.3844517,53.484461 6.0178189,49.373978 3.6511861,45.263495 22.87896,12.051885 27.622059,12.057563 c 4.7431,0.0057 23.89131,33.263223 21.514844,37.368028 z"
           inkscape:transform-center-x="0.023958288"
           inkscape:transform-center-y="-6.2108008"
           transform="matrix(1.6079121,0,0,1,-16.387358,1.0821309)" />
        <path
           style="fill:#faffff;fill-opacity:1;stroke-width:0.26458332"
           d="m 8.6796597,43.755764 c -5.4443682,0 -9.8273047,4.382936 -9.8273047,9.827307 v 37.042182 c 0,5.44437 4.3829365,9.827307 9.8273047,9.827307 h 8.1576443 c -0.01885,-0.24977 -0.03152,-0.501257 -0.03152,-0.756017 V 78.907622 c 0,-5.444376 4.383447,-9.827307 9.827823,-9.827307 h 2.645833 c 5.444374,0 9.827308,4.382931 9.827305,9.827307 v 20.788921 c 0,0.25476 -0.01267,0.506247 -0.03152,0.756017 h 8.157644 c 5.444368,0 9.827823,-4.382937 9.827823,-9.827307 V 53.583071 c 0,-5.444371 -4.383455,-9.827307 -9.827823,-9.827307 z"
           id="rect4538"
           inkscape:connector-curvature="0" />
      </g>
    </g>
  </g>
</svg>
